# Blender 4.2.0
# www.blender.org
o InvalidFloorMesh
v -0.450000 0.050000 0.314018
v -0.314018 0.050000 0.450000
v -0.443345 0.050000 0.356039
v -0.424030 0.050000 0.393946
v -0.393946 0.050000 0.424030
v -0.356039 0.050000 0.443345
v 0.314018 0.050000 0.450000
v 0.450000 0.050000 0.314018
v 0.356039 0.050000 0.443345
v 0.393946 0.050000 0.424030
v 0.424030 0.050000 0.393946
v 0.443345 0.050000 0.356039
v -0.314018 0.050000 -0.450000
v -0.450000 0.050000 -0.314018
v -0.356039 0.050000 -0.443345
v -0.393946 0.050000 -0.424030
v -0.424030 0.050000 -0.393946
v -0.443345 0.050000 -0.356039
v 0.450000 0.050000 -0.314018
v 0.314018 0.050000 -0.450000
v 0.443345 0.050000 -0.356039
v 0.424030 0.050000 -0.393946
v 0.393946 0.050000 -0.424030
v 0.356039 0.050000 -0.443345
v -0.163773 0.050000 0.000000
v 0.000000 0.050000 0.163773
v 0.163773 0.050000 0.000000
v 0.000000 0.050000 -0.163773
vn -0.0000 1.0000 -0.0000
vt 0.000000 0.151091
vt 0.002465 0.104401
vt 0.009619 0.062282
vt 0.062282 0.009619
vt 0.104401 0.002465
vt 0.151091 0.000000
vt 0.500000 0.000000
vt 0.848909 0.000000
vt 0.895599 0.002465
vt 0.937718 0.009619
vt 0.990381 0.062282
vt 0.997535 0.104401
vt 1.000000 0.151091
vt 1.000000 0.500000
vt 1.000000 0.848909
vt 0.997535 0.895599
vt 0.990381 0.937718
vt 0.937718 0.990381
vt 0.895599 0.997535
vt 0.848909 1.000000
vt 0.500000 1.000000
vt 0.151091 1.000000
vt 0.104401 0.997535
vt 0.062282 0.990381
vt 0.009619 0.937718
vt 0.002465 0.895599
vt 0.000000 0.848909
vt 0.000000 0.500000
s 0
f 1/1/1 3/2/1 4/3/1 5/4/1 6/5/1 2/6/1 26/7/1 7/8/1 9/9/1 10/10/1 11/11/1 12/12/1 8/13/1 27/14/1 19/15/1 21/16/1 22/17/1 23/18/1 24/19/1 20/20/1 28/21/1 13/22/1 15/23/1 16/24/1 17/25/1 18/26/1 14/27/1 25/28/1
